<svg xmlns="http://www.w3.org/2000/svg" xmlns:xlink="http://www.w3.org/1999/xlink" version="1.1" x="0px" y="0px" viewBox="0 0 315.882 581.15375" enable-background="new 0 0 315.882 464.923" xml:space="preserve"><g><path d="M157.9,8.504c-18.707,0-33.871,15.164-33.871,33.87s15.164,33.87,33.871,33.87c18.706,0,33.87-15.164,33.87-33.87   S176.606,8.504,157.9,8.504L157.9,8.504z M115.526,42.374C115.526,18.971,134.497,0,157.9,0c23.402,0,42.374,18.971,42.374,42.374   S181.303,84.748,157.9,84.748C134.497,84.748,115.526,65.777,115.526,42.374L115.526,42.374z"/><path d="M200.702,228.841v-4.367v-76.015c0-4.826,3.435-8.819,7.22-10.5c3.688-1.229,8.743-0.814,12.06,2.502l65.695,65.695   c4.866,4.866,12.899,4.936,17.943,0c5.011-5.01,5.011-13.131,0-18.142l-80.778-80.779c-1.556-1.556-3.455-2.83-5.594-3.72   c-2.047-0.854-4.288-1.216-6.276-1.136l-106.354,0.202c-2.07,0-4.227,0.415-6.342,1.278c-2.022,0.879-3.902,2.159-5.52,3.776   l-80.537,80.339c-4.927,4.993-4.955,13.116-0.079,18.142c5.002,4.937,13.148,4.954,18.172,0.049l65.741-65.922   c3.19-2.732,8.208-3.555,12.022-2.284c3.785,1.68,7.221,5.674,7.221,10.5v81.981L57.415,431.033   c-2.986,10.488,3.088,21.521,13.6,24.623c10.496,2.988,21.539-3.098,24.63-13.625l43.272-150.263   c2.481-8.478,10.291-14.271,19.084-14.271c8.792,0,16.602,5.793,19.082,14.271l43.276,150.274   c2.985,10.487,13.899,16.588,24.389,13.624c10.661-3.09,16.7-14.146,13.649-24.597L201.23,231.982   C200.913,231.04,200.702,229.979,200.702,228.841L200.702,228.841z M209.205,224.474v0.397v0.199v3.771v0.396   c0,0.132,0.066,0.266,0.198,0.397l57.161,199.07c4.386,15.017-4.323,30.745-19.45,35.13c-15.018,4.275-30.656-4.434-34.932-19.451   l-43.267-150.245c-1.41-4.817-5.864-8.137-10.916-8.137c-5.053,0-9.507,3.319-10.917,8.137l-43.268,150.245   c-4.385,15.018-20.113,23.727-35.13,19.451c-15.017-4.385-23.725-20.113-19.45-35.13l57.557-199.467v-80.779   c0-1.08-0.707-2.101-1.786-2.58c-1.083-0.361-2.333-0.127-3.176,0.595l-65.496,65.695c-8.331,8.221-21.838,8.221-30.168,0   c-8.222-8.331-8.222-21.837,0-30.168l80.58-80.382c2.36-2.36,5.123-4.247,8.138-5.558c3.146-1.31,6.448-1.984,9.725-1.984   l106.184-0.199c3.273-0.131,6.582,0.477,9.725,1.787c3.144,1.309,5.978,3.199,8.336,5.557l80.779,80.779   c8.331,8.331,8.331,21.837,0,30.168c-8.331,8.221-21.748,8.221-29.97,0l-65.695-65.695c-0.722-0.722-1.894-0.956-2.977-0.595   c-1.079,0.479-1.787,1.5-1.787,2.58V224.474L209.205,224.474z"/></g></svg>